<?xml version="1.0" encoding="UTF-8"?><svg xmlns="http://www.w3.org/2000/svg" xmlns:xlink="http://www.w3.org/1999/xlink" viewBox="0 0 1409.02 1407.12"><defs><radialGradient id="radial-gradient" cx="734.21" cy="707.4" fx="679.68" fy="838.89" r="558.99" gradientTransform="translate(1469.43 817.25) rotate(179.49) scale(1 .16)" gradientUnits="userSpaceOnUse"><stop offset="0" stop-color="#dea000"></stop><stop offset=".51" stop-color="#dda100"></stop><stop offset=".65" stop-color="#db9e00"></stop><stop offset=".72" stop-color="#d49600"></stop><stop offset=".78" stop-color="#c88900"></stop><stop offset=".83" stop-color="#b87601"></stop><stop offset=".87" stop-color="#a76202"></stop></radialGradient><radialGradient id="radial-gradient-2" cx="828.92" cy="877.52" fx="828.92" fy="877.52" r="434.27" gradientTransform="translate(0 599.02) scale(1 .32)" xlink:href="#radial-gradient"></radialGradient><radialGradient id="radial-gradient-3" cx="816.05" cy="523.74" fx="816.05" fy="523.74" r="448.35" gradientTransform="translate(0 396.31) scale(1 .24)" xlink:href="#radial-gradient"></radialGradient><clipPath id="clippath"><path class="cls-1" d="M178.06,85.98c16.59,10.89,28.57,19.68,36.61,27.72l12.82,12.82-1.97,153.74v491.34c0,303.01,246.52,549.53,549.53,549.53s549.53-246.52,549.53-549.53V85.98H178.06ZM444.13,577.56c0-59.16,47.96-107.12,107.12-107.12h636.15c0,59.16-47.96,107.12-107.12,107.12H444.13ZM292.72,754.45h0c0-59.16,47.96-107.12,107.12-107.12h762.15c0,59.16-47.96,107.12-107.12,107.12H292.72ZM1200.27,824.22c0,59.16-47.96,107.12-107.12,107.12H457c0-59.16,47.96-107.12,107.12-107.12h636.15Z"></path></clipPath><clipPath id="clippath-1"><rect class="cls-1" x="173.06" y="80.98" width="1156.52" height="1245.15"></rect></clipPath><filter id="luminosity-invert" x="173.06" y="80.98" width="1156.52" height="1245.15" color-interpolation-filters="sRGB" filterUnits="userSpaceOnUse"><feColorMatrix result="cm" values="-1 0 0 0 1 0 -1 0 0 1 0 0 -1 0 1 0 0 0 1 0"></feColorMatrix></filter><mask id="mask" x="173.06" y="80.98" width="1156.52" height="1245.15" maskUnits="userSpaceOnUse"><g class="cls-5"><image width="1151" height="1240" transform="translate(175.91 83.77)"></image></g></mask><clipPath id="clippath-2"><path class="cls-1" d="M178.06,85.98c16.59,10.89,28.57,19.68,36.61,27.72l12.82,12.82-1.97,153.74v491.34c0,303.01,246.52,549.53,549.53,549.53s549.53-246.52,549.53-549.53V85.98H178.06ZM444.13,577.56c0-59.16,47.96-107.12,107.12-107.12h636.15c0,59.16-47.96,107.12-107.12,107.12H444.13ZM292.72,754.45h0c0-59.16,47.96-107.12,107.12-107.12h762.15c0,59.16-47.96,107.12-107.12,107.12H292.72ZM1200.27,824.22c0,59.16-47.96,107.12-107.12,107.12H457c0-59.16,47.96-107.12,107.12-107.12h636.15Z"></path></clipPath><linearGradient id="linear-gradient" x1="0" y1="703.56" x2="1409.02" y2="703.56" gradientUnits="userSpaceOnUse"><stop offset="0" stop-color="#d6930b"></stop><stop offset=".25" stop-color="#eab40a"></stop><stop offset=".68" stop-color="#d89701"></stop><stop offset="1" stop-color="#d38f03"></stop></linearGradient><linearGradient id="linear-gradient-2" x1="40.01" y1="703.56" x2="1369.02" y2="703.56" gradientUnits="userSpaceOnUse"><stop offset="0" stop-color="#bd7b01"></stop><stop offset=".42" stop-color="#d89e06"></stop><stop offset="1" stop-color="#ab6201"></stop></linearGradient><linearGradient id="linear-gradient-3" x1="441.88" y1="522.88" x2="1187.4" y2="522.88" gradientUnits="userSpaceOnUse"><stop offset=".03" stop-color="#f9d117"></stop><stop offset=".22" stop-color="#f7cb12"></stop><stop offset=".82" stop-color="#dfad00"></stop></linearGradient><filter id="luminosity-invert-2" x="441.91" y="465.77" width="748" height="114" color-interpolation-filters="sRGB" filterUnits="userSpaceOnUse"><feColorMatrix result="cm" values="-1 0 0 0 1 0 -1 0 0 1 0 0 -1 0 1 0 0 0 1 0"></feColorMatrix></filter><mask id="mask-1" x="441.91" y="465.77" width="748" height="114" maskUnits="userSpaceOnUse"><g class="cls-8"><image width="748" height="114" transform="translate(441.91 465.77)"></image></g></mask><linearGradient id="linear-gradient-4" x1="444.13" y1="526.21" x2="1189.65" y2="526.21" xlink:href="#linear-gradient-3"></linearGradient><filter id="luminosity-invert-3" x="441.91" y="468.77" width="748" height="115" color-interpolation-filters="sRGB" filterUnits="userSpaceOnUse"><feColorMatrix result="cm" values="-1 0 0 0 1 0 -1 0 0 1 0 0 -1 0 1 0 0 0 1 0"></feColorMatrix></filter><mask id="mask-2" x="441.91" y="468.77" width="748" height="115" maskUnits="userSpaceOnUse"><g class="cls-12"><image width="748" height="115" transform="translate(441.91 468.77)"></image></g></mask><linearGradient id="linear-gradient-5" x1="290.47" y1="699.77" x2="1161.99" y2="699.77" xlink:href="#linear-gradient-3"></linearGradient><filter id="luminosity-invert-4" x="289.91" y="642.77" width="875" height="114" color-interpolation-filters="sRGB" filterUnits="userSpaceOnUse"><feColorMatrix result="cm" values="-1 0 0 0 1 0 -1 0 0 1 0 0 -1 0 1 0 0 0 1 0"></feColorMatrix></filter><mask id="mask-3" x="289.91" y="642.77" width="875" height="114" maskUnits="userSpaceOnUse"><g class="cls-9"><image width="875" height="114" transform="translate(289.91 642.77)"></image></g></mask><linearGradient id="linear-gradient-6" x1="292.72" y1="702.84" x2="1164.24" y2="702.84" xlink:href="#linear-gradient-3"></linearGradient><filter id="luminosity-invert-5" x="289.91" y="645.77" width="875" height="114" color-interpolation-filters="sRGB" filterUnits="userSpaceOnUse"><feColorMatrix result="cm" values="-1 0 0 0 1 0 -1 0 0 1 0 0 -1 0 1 0 0 0 1 0"></feColorMatrix></filter><mask id="mask-4" x="289.91" y="645.77" width="875" height="114" maskUnits="userSpaceOnUse"><g class="cls-6"><image width="875" height="114" transform="translate(289.91 645.77)"></image></g></mask><linearGradient id="linear-gradient-7" x1="457" y1="880.24" x2="1202.52" y2="880.24" xlink:href="#linear-gradient-3"></linearGradient><filter id="luminosity-invert-6" x="454.91" y="822.77" width="748" height="115" color-interpolation-filters="sRGB" filterUnits="userSpaceOnUse"><feColorMatrix result="cm" values="-1 0 0 0 1 0 -1 0 0 1 0 0 -1 0 1 0 0 0 1 0"></feColorMatrix></filter><mask id="mask-5" x="454.91" y="822.77" width="748" height="115" maskUnits="userSpaceOnUse"><g class="cls-7"><image width="748" height="115" transform="translate(454.91 822.77)"></image></g></mask><linearGradient id="linear-gradient-8" x1="454.75" y1="876.39" x2="1200.27" y2="876.39" xlink:href="#linear-gradient-3"></linearGradient><filter id="luminosity-invert-7" x="454.91" y="818.77" width="748" height="115" color-interpolation-filters="sRGB" filterUnits="userSpaceOnUse"><feColorMatrix result="cm" values="-1 0 0 0 1 0 -1 0 0 1 0 0 -1 0 1 0 0 0 1 0"></feColorMatrix></filter><mask id="mask-6" x="454.91" y="818.77" width="748" height="115" maskUnits="userSpaceOnUse"><g class="cls-10"><image width="748" height="115" transform="translate(454.91 818.77)"></image></g></mask><radialGradient id="radial-gradient-4" cx="748.68" cy="703.56" fx="748.68" fy="703.56" r="599.35" gradientUnits="userSpaceOnUse"><stop offset=".03" stop-color="#f9d117"></stop><stop offset=".2" stop-color="#ffff58"></stop><stop offset=".53" stop-color="#f7cb12"></stop><stop offset="1" stop-color="#d19003"></stop></radialGradient><filter id="luminosity-invert-8" x="167.91" y="80.77" width="1161" height="1245" color-interpolation-filters="sRGB" filterUnits="userSpaceOnUse"><feColorMatrix result="cm" values="-1 0 0 0 1 0 -1 0 0 1 0 0 -1 0 1 0 0 0 1 0"></feColorMatrix></filter><mask id="mask-7" x="167.91" y="80.77" width="1161" height="1245" maskUnits="userSpaceOnUse"><g class="cls-11"><image width="1161" height="1245" transform="translate(167.91 80.77)"></image></g></mask></defs><g class="cls-27"><g id="Layer_2"><g id="Layer_1-2"><path class="cls-25" d="M400.12,647.07h762.15c0,59.12-48,107.12-107.12,107.12H293c0-59.12,48-107.12,107.12-107.12Z"></path><path class="cls-14" d="M564.4,823.96h636.15c0,59.12-48,107.12-107.12,107.12H457.28c0-59.12,48-107.12,107.12-107.12Z"></path><path class="cls-13" d="M551.53,470.18h636.15c0,59.12-48,107.12-107.12,107.12H444.41c0-59.12,48-107.12,107.12-107.12Z"></path><image class="cls-16" width="1165" height="1254" transform="translate(170.91 78.77)"></image><g class="cls-38"><g class="cls-35"><image width="2410" height="2595" transform="translate(172.91 80.77) scale(.48)"></image></g></g><g class="cls-4"><g class="cls-17"><g class="cls-36"><rect class="cls-37" x="173.06" y="80.98" width="1156.52" height="1245.15"></rect></g></g></g><path class="cls-26" d="M1330.19,0H49.79C21.48,0,6.47,17.3,1.87,33.49c-9.73,34.17,20.96,55.56,37.44,67.06,14.2,9.9,33.12,21.62,51.41,32.95,14.97,9.27,35.25,21.84,48.75,31.15l-1.47,114.8v492.16c0,350.42,285.09,635.51,635.51,635.51s635.51-285.09,635.51-635.51V78.83c0-43.47-35.36-78.83-78.82-78.83ZM1369.02,771.6c0,328.37-267.15,595.51-595.51,595.51S177.99,1099.97,177.99,771.6v-491.9s1.75-135.88,1.75-135.88l-17.56-12.11c-14.35-9.89-35.18-22.8-50.39-32.22l-.13-.08c-17.8-11.03-36.2-22.43-49.47-31.68-6.32-4.41-14.98-10.44-19.74-16.62-2.93-3.8-2.62-4.88-2.11-6.67.38-1.33,1.26-4.44,9.45-4.44h1280.41c21.41,0,38.82,17.42,38.82,38.83v692.78Z"></path><path class="cls-24" d="M1330.19,40H49.79c-8.19,0-9.07,3.11-9.45,4.44-.51,1.79-.82,2.87,2.11,6.67,4.76,6.18,13.42,12.21,19.74,16.62,13.27,9.25,31.68,20.66,49.47,31.68l.13.08c15.21,9.42,36.04,22.33,50.39,32.22l17.56,12.11-1.74,135.88v491.9c0,328.37,267.14,595.51,595.51,595.51s595.51-267.15,595.51-595.51V78.83c0-21.41-17.42-38.83-38.82-38.83ZM1323.03,771.6c0,303.01-246.52,549.53-549.53,549.53S223.97,1074.61,223.97,771.6v-491.34l1.97-153.74-12.82-12.82c-8.04-8.04-20.02-16.84-36.61-27.72h1146.52v685.62Z"></path><image class="cls-16" width="792" height="158" transform="translate(426.91 450.77)"></image><path class="cls-23" d="M444.13,577.56c-.18-16.75,3.47-33.65,11.06-48.71,7.44-15.12,18.59-28.43,32.13-38.58,6.8-5.04,14.18-9.31,21.97-12.66,7.81-3.3,16-5.71,24.37-7.14,2.09-.39,4.2-.59,6.3-.89,2.11-.18,4.23-.39,6.35-.5,4.27-.18,8.45-.18,12.63-.2l25.14-.15c33.52-.25,67.03-.27,100.55-.4l100.55-.12,100.55.12c33.52.13,67.03.14,100.55.4l100.55.63,50.28.51,25.14.26,25.14.34-25.14.34-25.14.26-50.28.51-100.55.63c-33.52.26-67.03.27-100.55.4l-100.55.12-100.55-.12c-33.52-.13-67.03-.15-100.55-.4l-25.14-.15c-4.19-.03-8.39-.08-12.5.04-2.06.08-4.12.26-6.18.41-2.05.27-4.11.44-6.15.8-8.17,1.3-16.18,3.54-23.85,6.67-7.65,3.17-14.91,7.28-21.65,12.1-13.46,9.68-24.71,22.55-32.36,37.35-1.97,3.68-3.6,7.52-5.14,11.4-.68,1.97-1.42,3.92-2.03,5.92-.57,2.01-1.23,3.99-1.68,6.03-2.04,8.1-3.14,16.45-3.27,24.83Z"></path><g class="cls-34"><g class="cls-17"><path class="cls-37" d="M444.13,577.56c-.18-16.75,3.47-33.65,11.06-48.71,7.44-15.12,18.59-28.43,32.13-38.58,6.8-5.04,14.18-9.31,21.97-12.66,7.81-3.3,16-5.71,24.37-7.14,2.09-.39,4.2-.59,6.3-.89,2.11-.18,4.23-.39,6.35-.5,4.27-.18,8.45-.18,12.63-.2l25.14-.15c33.52-.25,67.03-.27,100.55-.4l100.55-.12,100.55.12c33.52.13,67.03.14,100.55.4l100.55.63,50.28.51,25.14.26,25.14.34-25.14.34-25.14.26-50.28.51-100.55.63c-33.52.26-67.03.27-100.55.4l-100.55.12-100.55-.12c-33.52-.13-67.03-.15-100.55-.4l-25.14-.15c-4.19-.03-8.39-.08-12.5.04-2.06.08-4.12.26-6.18.41-2.05.27-4.11.44-6.15.8-8.17,1.3-16.18,3.54-23.85,6.67-7.65,3.17-14.91,7.28-21.65,12.1-13.46,9.68-24.71,22.55-32.36,37.35-1.97,3.68-3.6,7.52-5.14,11.4-.68,1.97-1.42,3.92-2.03,5.92-.57,2.01-1.23,3.99-1.68,6.03-2.04,8.1-3.14,16.45-3.27,24.83Z"></path></g></g><image class="cls-16" width="792" height="159" transform="translate(426.91 453.77)"></image><path class="cls-22" d="M1187.4,471.53c.18,16.75-3.47,33.65-11.06,48.71-7.44,15.12-18.59,28.43-32.13,38.58-6.8,5.04-14.18,9.31-21.97,12.66-7.81,3.3-16,5.71-24.37,7.14-2.09.39-4.2.59-6.3.89-2.11.18-4.23.39-6.35.5-4.27.18-8.45.18-12.63.2l-25.14.15c-33.52.25-67.03.27-100.55.4l-100.55.12-100.55-.12c-33.52-.13-67.03-.14-100.55-.4l-100.55-.63-50.28-.51-25.14-.26-25.14-.34,25.14-.34,25.14-.26,50.28-.51,100.55-.63c33.52-.26,67.03-.27,100.55-.4l100.55-.12,100.55.12c33.52.13,67.03.15,100.55.4l25.14.15c4.19.03,8.39.08,12.5-.04,2.06-.08,4.12-.26,6.18-.41,2.05-.27,4.11-.44,6.15-.8,8.17-1.3,16.18-3.54,23.85-6.67,7.65-3.17,14.91-7.28,21.65-12.1,13.46-9.68,24.71-22.55,32.36-37.35,1.97-3.68,3.6-7.52,5.14-11.4.68-1.97,1.42-3.92,2.03-5.92.57-2.01,1.23-3.99,1.68-6.03,2.04-8.1,3.14-16.45,3.27-24.83Z"></path><g class="cls-28"><g class="cls-17"><path class="cls-37" d="M1187.4,471.53c.18,16.75-3.47,33.65-11.06,48.71-7.44,15.12-18.59,28.43-32.13,38.58-6.8,5.04-14.18,9.31-21.97,12.66-7.81,3.3-16,5.71-24.37,7.14-2.09.39-4.2.59-6.3.89-2.11.18-4.23.39-6.35.5-4.27.18-8.45.18-12.63.2l-25.14.15c-33.52.25-67.03.27-100.55.4l-100.55.12-100.55-.12c-33.52-.13-67.03-.14-100.55-.4l-100.55-.63-50.28-.51-25.14-.26-25.14-.34,25.14-.34,25.14-.26,50.28-.51,100.55-.63c33.52-.26,67.03-.27,100.55-.4l100.55-.12,100.55.12c33.52.13,67.03.15,100.55.4l25.14.15c4.19.03,8.39.08,12.5-.04,2.06-.08,4.12-.26,6.18-.41,2.05-.27,4.11-.44,6.15-.8,8.17-1.3,16.18-3.54,23.85-6.67,7.65-3.17,14.91-7.28,21.65-12.1,13.46-9.68,24.71-22.55,32.36-37.35,1.97-3.68,3.6-7.52,5.14-11.4.68-1.97,1.42-3.92,2.03-5.92.57-2.01,1.23-3.99,1.68-6.03,2.04-8.1,3.14-16.45,3.27-24.83Z"></path></g></g><image class="cls-16" width="919" height="158" transform="translate(274.91 627.77)"></image><path class="cls-20" d="M292.72,754.45l.05-3.63.02-1.82.11-1.81.23-3.63.41-3.62.21-1.81.3-1.8.6-3.59c.55-2.36.96-4.77,1.66-7.1,1.19-4.72,2.88-9.29,4.72-13.8,1.89-4.49,4.12-8.82,6.57-13.04,9.95-16.77,24.53-30.79,41.78-40.08l3.25-1.7c1.1-.54,2.22-1.03,3.33-1.54l1.67-.77,1.7-.69,3.41-1.36c2.32-.77,4.61-1.66,6.98-2.29,1.18-.33,2.35-.71,3.54-1l3.58-.85c1.19-.31,2.4-.49,3.6-.72,1.21-.21,2.41-.48,3.62-.63,2.43-.32,4.86-.69,7.31-.83,1.22-.08,2.44-.24,3.67-.26l3.68-.11c2.45-.07,4.85-.04,7.28-.07l58.15-.31c38.77-.27,77.54-.22,116.3-.32l116.3-.2,116.3.2,58.15.1,29.08.06,29.08.15,116.3.63,58.15.51,29.08.26,29.08.34-29.08.34-29.08.26-58.15.51-116.3.63-29.08.15-29.08.06-58.15.1-116.3.2-116.3-.2c-38.77-.1-77.54-.05-116.3-.32l-58.15-.31c-2.42,0-4.86-.05-7.25-.01l-3.59.07c-1.2,0-2.39.15-3.58.21-2.39.12-4.76.45-7.14.74-1.19.13-2.36.39-3.54.58-1.18.21-2.37.38-3.53.67l-3.5.79c-1.17.27-2.31.63-3.47.94-2.32.59-4.57,1.43-6.85,2.16-4.48,1.68-8.92,3.53-13.16,5.77-17.05,8.81-31.66,22.35-41.79,38.76-10.13,16.42-15.63,35.65-15.9,55.03Z"></path><g class="cls-29"><g class="cls-17"><path class="cls-37" d="M292.72,754.45l.05-3.63.02-1.82.11-1.81.23-3.63.41-3.62.21-1.81.3-1.8.6-3.59c.55-2.36.96-4.77,1.66-7.1,1.19-4.72,2.88-9.29,4.72-13.8,1.89-4.49,4.12-8.82,6.57-13.04,9.95-16.77,24.53-30.79,41.78-40.08l3.25-1.7c1.1-.54,2.22-1.03,3.33-1.54l1.67-.77,1.7-.69,3.41-1.36c2.32-.77,4.61-1.66,6.98-2.29,1.18-.33,2.35-.71,3.54-1l3.58-.85c1.19-.31,2.4-.49,3.6-.72,1.21-.21,2.41-.48,3.62-.63,2.43-.32,4.86-.69,7.31-.83,1.22-.08,2.44-.24,3.67-.26l3.68-.11c2.45-.07,4.85-.04,7.28-.07l58.15-.31c38.77-.27,77.54-.22,116.3-.32l116.3-.2,116.3.2,58.15.1,29.08.06,29.08.15,116.3.63,58.15.51,29.08.26,29.08.34-29.08.34-29.08.26-58.15.51-116.3.63-29.08.15-29.08.06-58.15.1-116.3.2-116.3-.2c-38.77-.1-77.54-.05-116.3-.32l-58.15-.31c-2.42,0-4.86-.05-7.25-.01l-3.59.07c-1.2,0-2.39.15-3.58.21-2.39.12-4.76.45-7.14.74-1.19.13-2.36.39-3.54.58-1.18.21-2.37.38-3.53.67l-3.5.79c-1.17.27-2.31.63-3.47.94-2.32.59-4.57,1.43-6.85,2.16-4.48,1.68-8.92,3.53-13.16,5.77-17.05,8.81-31.66,22.35-41.79,38.76-10.13,16.42-15.63,35.65-15.9,55.03Z"></path></g></g><image class="cls-16" width="919" height="158" transform="translate(274.91 630.77)"></image><path class="cls-21" d="M1161.99,648.16l-.05,3.63-.02,1.82-.11,1.81-.23,3.63-.41,3.62-.21,1.81-.3,1.8-.6,3.59c-.55,2.36-.96,4.77-1.66,7.1-1.19,4.72-2.88,9.29-4.72,13.8-1.89,4.49-4.12,8.82-6.57,13.04-9.95,16.77-24.53,30.79-41.78,40.08l-3.25,1.7c-1.1.54-2.22,1.03-3.33,1.54l-1.67.77-1.7.69-3.41,1.36c-2.32.77-4.61,1.66-6.98,2.29-1.18.33-2.35.71-3.54,1l-3.58.85c-1.19.31-2.4.49-3.6.72-1.21.21-2.41.48-3.62.63-2.43.32-4.86.69-7.31.83-1.22.08-2.44.24-3.67.26l-3.68.11c-2.45.07-4.85.04-7.28.07l-58.15.31c-38.77.27-77.54.22-116.3.32l-116.3.2-116.3-.2-58.15-.1-29.08-.06-29.08-.15-116.3-.63-58.15-.51-29.08-.26-29.08-.34,29.08-.34,29.08-.26,58.15-.51,116.3-.63,29.08-.15,29.08-.06,58.15-.1,116.3-.2,116.3.2c38.77.1,77.54.05,116.3.32l58.15.31c2.42,0,4.86.05,7.25.01l3.59-.07c1.2,0,2.39-.15,3.58-.21,2.39-.12,4.76-.45,7.14-.74,1.19-.13,2.36-.39,3.54-.58,1.18-.21,2.37-.38,3.53-.67l3.5-.79c1.17-.27,2.31-.63,3.47-.94,2.32-.59,4.57-1.43,6.85-2.16,4.48-1.68,8.92-3.53,13.16-5.77,17.05-8.81,31.66-22.35,41.79-38.76,10.13-16.42,15.63-35.65,15.9-55.03Z"></path><g class="cls-30"><g class="cls-17"><path class="cls-37" d="M1161.99,648.16l-.05,3.63-.02,1.82-.11,1.81-.23,3.63-.41,3.62-.21,1.81-.3,1.8-.6,3.59c-.55,2.36-.96,4.77-1.66,7.1-1.19,4.72-2.88,9.29-4.72,13.8-1.89,4.49-4.12,8.82-6.57,13.04-9.95,16.77-24.53,30.79-41.78,40.08l-3.25,1.7c-1.1.54-2.22,1.03-3.33,1.54l-1.67.77-1.7.69-3.41,1.36c-2.32.77-4.61,1.66-6.98,2.29-1.18.33-2.35.71-3.54,1l-3.58.85c-1.19.31-2.4.49-3.6.72-1.21.21-2.41.48-3.62.63-2.43.32-4.86.69-7.31.83-1.22.08-2.44.24-3.67.26l-3.68.11c-2.45.07-4.85.04-7.28.07l-58.15.31c-38.77.27-77.54.22-116.3.32l-116.3.2-116.3-.2-58.15-.1-29.08-.06-29.08-.15-116.3-.63-58.15-.51-29.08-.26-29.08-.34,29.08-.34,29.08-.26,58.15-.51,116.3-.63,29.08-.15,29.08-.06,58.15-.1,116.3-.2,116.3.2c38.77.1,77.54.05,116.3.32l58.15.31c2.42,0,4.86.05,7.25.01l3.59-.07c1.2,0,2.39-.15,3.58-.21,2.39-.12,4.76-.45,7.14-.74,1.19-.13,2.36-.39,3.54-.58,1.18-.21,2.37-.38,3.53-.67l3.5-.79c1.17-.27,2.31-.63,3.47-.94,2.32-.59,4.57-1.43,6.85-2.16,4.48-1.68,8.92-3.53,13.16-5.77,17.05-8.81,31.66-22.35,41.79-38.76,10.13-16.42,15.63-35.65,15.9-55.03Z"></path></g></g><image class="cls-16" width="792" height="159" transform="translate(439.91 807.77)"></image><path class="cls-19" d="M1200.27,825.56c.18,16.75-3.46,33.65-11.06,48.71-7.44,15.12-18.58,28.43-32.12,38.59-6.8,5.04-14.18,9.31-21.97,12.66-7.81,3.3-16,5.71-24.37,7.14-2.09.39-4.2.59-6.3.89-2.11.18-4.23.39-6.35.5-4.27.18-8.45.18-12.63.2l-25.14.15c-33.52.26-67.03.27-100.55.4l-100.55.12-100.55-.12c-33.52-.13-67.03-.15-100.55-.4l-100.55-.63-50.28-.5-25.14-.26-25.14-.34,25.14-.34,25.14-.26,50.28-.5,100.55-.63c33.52-.25,67.03-.27,100.55-.4l100.55-.12,100.55.12c33.52.13,67.03.14,100.55.4l25.14.15c4.19.03,8.39.08,12.5-.04,2.06-.08,4.12-.26,6.18-.41,2.05-.27,4.11-.44,6.15-.8,8.17-1.3,16.18-3.54,23.85-6.67,7.65-3.17,14.91-7.27,21.65-12.1,13.46-9.68,24.71-22.54,32.37-37.35,1.97-3.68,3.6-7.52,5.14-11.39.68-1.97,1.42-3.92,2.03-5.92.57-2.01,1.23-3.99,1.68-6.03,2.04-8.1,3.14-16.45,3.27-24.83Z"></path><g class="cls-31"><g class="cls-17"><path class="cls-37" d="M1200.27,825.56c.18,16.75-3.46,33.65-11.06,48.71-7.44,15.12-18.58,28.43-32.12,38.59-6.8,5.04-14.18,9.31-21.97,12.66-7.81,3.3-16,5.71-24.37,7.14-2.09.39-4.2.59-6.3.89-2.11.18-4.23.39-6.35.5-4.27.18-8.45.18-12.63.2l-25.14.15c-33.52.26-67.03.27-100.55.4l-100.55.12-100.55-.12c-33.52-.13-67.03-.15-100.55-.4l-100.55-.63-50.28-.5-25.14-.26-25.14-.34,25.14-.34,25.14-.26,50.28-.5,100.55-.63c33.52-.25,67.03-.27,100.55-.4l100.55-.12,100.55.12c33.52.13,67.03.14,100.55.4l25.14.15c4.19.03,8.39.08,12.5-.04,2.06-.08,4.12-.26,6.18-.41,2.05-.27,4.11-.44,6.15-.8,8.17-1.3,16.18-3.54,23.85-6.67,7.65-3.17,14.91-7.27,21.65-12.1,13.46-9.68,24.71-22.54,32.37-37.35,1.97-3.68,3.6-7.52,5.14-11.39.68-1.97,1.42-3.92,2.03-5.92.57-2.01,1.23-3.99,1.68-6.03,2.04-8.1,3.14-16.45,3.27-24.83Z"></path></g></g><image class="cls-16" width="792" height="159" transform="translate(439.91 803.77)"></image><path class="cls-18" d="M457,931.07c-.18-16.75,3.46-33.65,11.06-48.71,7.44-15.13,18.58-28.43,32.12-38.59,6.8-5.04,14.18-9.31,21.97-12.66,7.81-3.3,16-5.71,24.37-7.14,2.09-.39,4.2-.59,6.3-.89,2.11-.18,4.23-.39,6.35-.5,4.27-.18,8.45-.18,12.63-.2l25.14-.15c33.52-.26,67.03-.27,100.55-.4l100.55-.12,100.55.12c33.52.13,67.03.15,100.55.4l100.55.63,50.28.5,25.14.26,25.14.34-25.14.34-25.14.26-50.28.5-100.55.63c-33.52.25-67.03.27-100.55.4l-100.55.12-100.55-.12c-33.52-.13-67.03-.14-100.55-.4l-25.14-.15c-4.19-.03-8.39-.08-12.5.04-2.06.08-4.12.26-6.18.41-2.05.27-4.11.44-6.15.8-8.17,1.3-16.18,3.54-23.85,6.67-7.65,3.17-14.91,7.27-21.65,12.1-13.46,9.68-24.71,22.54-32.37,37.35-1.97,3.68-3.6,7.52-5.14,11.39-.68,1.97-1.42,3.92-2.03,5.92-.57,2.01-1.23,3.99-1.68,6.03-2.04,8.1-3.14,16.45-3.27,24.83Z"></path><g class="cls-33"><g class="cls-17"><path class="cls-37" d="M457,931.07c-.18-16.75,3.46-33.65,11.06-48.71,7.44-15.13,18.58-28.43,32.12-38.59,6.8-5.04,14.18-9.31,21.97-12.66,7.81-3.3,16-5.71,24.37-7.14,2.09-.39,4.2-.59,6.3-.89,2.11-.18,4.23-.39,6.35-.5,4.27-.18,8.45-.18,12.63-.2l25.14-.15c33.52-.26,67.03-.27,100.55-.4l100.55-.12,100.55.12c33.52.13,67.03.15,100.55.4l100.55.63,50.28.5,25.14.26,25.14.34-25.14.34-25.14.26-50.28.5-100.55.63c-33.52.25-67.03.27-100.55.4l-100.55.12-100.55-.12c-33.52-.13-67.03-.14-100.55-.4l-25.14-.15c-4.19-.03-8.39-.08-12.5.04-2.06.08-4.12.26-6.18.41-2.05.27-4.11.44-6.15.8-8.17,1.3-16.18,3.54-23.85,6.67-7.65,3.17-14.91,7.27-21.65,12.1-13.46,9.68-24.71,22.54-32.37,37.35-1.97,3.68-3.6,7.52-5.14,11.39-.68,1.97-1.42,3.92-2.03,5.92-.57,2.01-1.23,3.99-1.68,6.03-2.04,8.1-3.14,16.45-3.27,24.83Z"></path></g></g><image class="cls-15" width="1169" height="1253" transform="translate(163.91 76.77)"></image><path class="cls-3" d="M178.06,85.98c16.59,10.89,28.57,19.68,36.61,27.72l12.82,12.82-1.97,153.74v491.34c0,303.01,246.52,549.53,549.53,549.53s549.53-246.52,549.53-549.53V85.98H178.06Z"></path><g class="cls-32"><g class="cls-17"><path class="cls-2" d="M178.06,85.98c16.59,10.89,28.57,19.68,36.61,27.72l12.82,12.82-1.97,153.74v491.34c0,303.01,246.52,549.53,549.53,549.53s549.53-246.52,549.53-549.53V85.98H178.06Z"></path></g></g></g></g></g></svg>